# xmcd
#
# Track frame offsets: 
#        150
#        22235
#        40858
#        43606
#        70042
#        101303
#        135737
#        169263
#        196104
#        234288
#        249624
#        276665
#        301112
#        321941
#
# Disc length: 4589 seconds
#
# Revision: 2
# Processed by: cddbd v1.5.2PL0 Copyright (c) Steve Scherf et al.
# Submitted via: ExactAudioCopy v1.3
#
DISCID=c011eb0e
DTITLE=Bill Evans - 7 Classic Albums - Everybody Digs
DYEAR=1958
DGENRE=Jazz
TTITLE0=What Is There To Say
TTITLE1=Oleo
TTITLE2=Epilogue
TTITLE3=Honeysuckle Rose
TTITLE4=As Time Goes By
TTITLE5=The Way You Look Tonight
TTITLE6=It Could Happen To You
TTITLE7=The Man I Love
TTITLE8=I Got Rhythm
TTITLE9=Come Rain Or Come Shine
TTITLE10=Autumn Leaves (Take 1)
TTITLE11=Autumn Leaves (Mono)
TTITLE12=Witchcraft
TTITLE13=When I Fall In Love
EXTD=
EXTT0=
EXTT1=
EXTT2=
EXTT3=
EXTT4=
EXTT5=
EXTT6=
EXTT7=
EXTT8=
EXTT9=
EXTT10=
EXTT11=
EXTT12=
EXTT13=
PLAYORDER=
